<svg width="20" height="20" viewBox="0 0 20 20" xmlns="http://www.w3.org/2000/svg">
    <path fill-rule="evenodd" clip-rule="evenodd" d="M0.00265117 5.09514V7.29733C-0.016359 7.58317 0.0673418 7.86634 0.238393 8.09488C0.403412 8.29724 0.662728 8.40438 0.992766 8.40438C1.33459 8.40438 1.59391 8.29724 1.77071 8.09488C1.94752 7.88061 2.04182 7.61873 2.04182 7.30924V6.02363H4.37566V15.0348H3.78631C3.65451 15.0304 3.52316 15.0523 3.39978 15.0993C3.27639 15.1462 3.1634 15.2174 3.06729 15.3085C2.8787 15.499 2.7844 15.7252 2.7844 16.0228C2.77828 16.1553 2.80036 16.2876 2.84916 16.4109C2.89796 16.5341 2.97234 16.6453 3.06729 16.737C3.26459 16.9146 3.52217 17.0084 3.78631 16.9989H7.18099C7.44914 17.0115 7.71152 16.9175 7.91178 16.737C8.10038 16.5584 8.19467 16.3204 8.19467 16.0228C8.19467 15.7252 8.10038 15.499 7.9 15.3085C7.72319 15.13 7.48745 15.0348 7.19277 15.0348H6.60342V6.01173H8.94905V7.29733C8.93626 7.58063 9.02403 7.85923 9.19658 8.08298C9.3616 8.28534 9.62091 8.39247 9.95095 8.39247C10.2928 8.39247 10.5521 8.28534 10.7289 8.08298C10.9057 7.86871 11 7.60683 11 7.29733V5.09514C11 4.78565 10.9175 4.53567 10.7525 4.3333C10.5757 4.11904 10.3399 4.0119 10.0099 4H0.980979C0.662728 4 0.415199 4.11904 0.238393 4.3333C0.0753377 4.55228 -0.0079262 4.82137 0.00265117 5.09514ZM13.6975 5.12045C13.6975 4.96575 13.8229 4.84034 13.9776 4.84034H18.8796C19.0343 4.84034 19.1597 4.96575 19.1597 5.12045V7.60761L18.1263 6.57424C17.9622 6.41015 17.6962 6.41015 17.5321 6.57424L13.8399 10.2664C13.7549 10.2183 13.6975 10.1271 13.6975 10.0224V5.12045ZM20 5.12045V8.61524V8.62884V10.0224C20 10.6412 19.4984 11.1429 18.8796 11.1429H13.9904C13.9808 11.1431 13.9712 11.1431 13.9617 11.1427C13.3502 11.1342 12.8572 10.6359 12.8572 10.0224V5.12045C12.8572 4.50164 13.3588 4 13.9776 4H18.8796C19.4984 4 20 4.50164 20 5.12045ZM17.8292 7.46555L19.1597 8.79603V10.0224C19.1597 10.1771 19.0343 10.3025 18.8796 10.3025H14.9922L17.8292 7.46555ZM15.0982 6.34605C15.0982 6.28803 15.1452 6.24101 15.2032 6.24101C15.2612 6.24101 15.3083 6.28803 15.3083 6.34605C15.3083 6.40406 15.2612 6.45109 15.2032 6.45109C15.1452 6.45109 15.0982 6.40406 15.0982 6.34605ZM15.2032 5.40067C14.6811 5.40067 14.2578 5.82393 14.2578 6.34605C14.2578 6.86817 14.6811 7.29143 15.2032 7.29143C15.7253 7.29143 16.1486 6.86817 16.1486 6.34605C16.1486 5.82393 15.7253 5.40067 15.2032 5.40067ZM13 14.2C13 14.0895 13.0895 14 13.2 14H19.8C19.9105 14 20 14.0895 20 14.2V16.8C20 16.9105 19.9105 17 19.8 17H13.2C13.0895 17 13 16.9105 13 16.8V14.2ZM13.2 12C13.0895 12 13 12.0895 13 12.2V12.8C13 12.9105 13.0895 13 13.2 13H19.8C19.9105 13 20 12.9105 20 12.8V12.2C20 12.0895 19.9105 12 19.8 12H13.2Z"/>
</svg>
