<svg width="20" height="20" viewBox="0 0 20 20" xmlns="http://www.w3.org/2000/svg">
    <path fill-rule="evenodd" clip-rule="evenodd" d="M1.00282 4.16655V6.51233C0.982574 6.8168 1.07173 7.11844 1.25394 7.36188C1.42972 7.57744 1.70594 7.69156 2.0575 7.69156C2.42161 7.69156 2.69784 7.57744 2.88617 7.36188C3.0745 7.13364 3.17495 6.85468 3.17495 6.52501V5.15558H5.66097V14.7543H5.03318C4.8928 14.7496 4.75288 14.7729 4.62145 14.823C4.49002 14.873 4.36967 14.9488 4.26729 15.0459C4.0664 15.2488 3.96595 15.4897 3.96595 15.8067C3.95943 15.9479 3.98296 16.0888 4.03494 16.2201C4.08692 16.3513 4.16615 16.4698 4.26729 16.5675C4.47745 16.7567 4.75183 16.8566 5.03318 16.8464H8.64921C8.93484 16.8599 9.21433 16.7598 9.42766 16.5675C9.62855 16.3773 9.72899 16.1237 9.72899 15.8067C9.72899 15.4897 9.62855 15.2488 9.4151 15.0459C9.22677 14.8557 8.97565 14.7543 8.66176 14.7543H8.03398V5.1429H10.5326V6.51233C10.5189 6.8141 10.6124 7.11087 10.7962 7.3492C10.972 7.56476 11.2482 7.67888 11.5998 7.67888C11.9639 7.67888 12.2401 7.56476 12.4285 7.3492C12.6168 7.12096 12.7172 6.842 12.7172 6.51233V4.16655C12.7172 3.83687 12.6293 3.57059 12.4536 3.35504C12.2652 3.1268 12.0141 3.01268 11.6626 3H2.04494C1.70594 3 1.44227 3.1268 1.25394 3.35504C1.08025 3.58829 0.991557 3.87492 1.00282 4.16655ZM11.6073 9.6866C11.6073 9.49874 11.7596 9.34645 11.9474 9.34645H17.9C18.0878 9.34645 18.2401 9.49874 18.2401 9.6866V12.7066L16.9854 11.4519C16.7861 11.2527 16.4631 11.2527 16.2638 11.4519L11.7803 15.9355C11.677 15.8771 11.6073 15.7663 11.6073 15.6391V9.6866ZM19.2605 9.6866V13.9244C19.2607 13.9291 19.2607 13.9339 19.2607 13.9386C19.2607 13.9433 19.2607 13.9481 19.2605 13.9528V15.6391C19.2605 16.3906 18.6514 16.9997 17.9 16.9997H11.9621C11.9512 17 11.9404 17 11.9295 16.9996C11.1863 16.99 10.5868 16.3846 10.5868 15.6391V9.6866C10.5868 8.93517 11.196 8.32601 11.9474 8.32601H17.9C18.6514 8.32601 19.2605 8.93517 19.2605 9.6866ZM16.6246 12.5343L18.2401 14.1498V15.6391C18.2401 15.827 18.0878 15.9793 17.9 15.9793H13.1796L16.6246 12.5343ZM13.3081 11.1748C13.3081 11.1043 13.3652 11.0472 13.4356 11.0472C13.5061 11.0472 13.5632 11.1043 13.5632 11.1748C13.5632 11.2452 13.5061 11.3023 13.4356 11.3023C13.3652 11.3023 13.3081 11.2452 13.3081 11.1748ZM13.4356 10.0268C12.8016 10.0268 12.2877 10.5407 12.2877 11.1748C12.2877 11.8088 12.8016 12.3227 13.4356 12.3227C14.0697 12.3227 14.5836 11.8088 14.5836 11.1748C14.5836 10.5407 14.0697 10.0268 13.4356 10.0268Z"/>
</svg>
